<svg version="1.1" id="Layer_1" xmlns="http://www.w3.org/2000/svg" xmlns:xlink="http://www.w3.org/1999/xlink" x="0px" y="0px"
	 width="100%" viewBox="0 0 400 288" enable-background="new 0 0 400 288" xml:space="preserve">
<path fill="#000000" opacity="1.000000" stroke="none" 
	d="
M188.999908,139.314392 
	C178.936478,139.314682 169.373062,139.314682 159.736435,139.314682 
	C159.526093,144.414383 162.213943,144.680237 165.263031,144.674377 
	C180.753235,144.644623 196.243607,144.640564 211.733734,144.687775 
	C213.663864,144.693665 215.746689,144.146957 217.498825,145.606750 
	C218.199753,147.520126 217.319519,149.220047 216.732162,150.904129 
	C214.320511,157.819046 211.724777,164.671432 209.410614,171.618073 
	C208.059387,175.674103 205.611679,177.442596 201.271332,177.379868 
	C189.780945,177.213791 178.286591,177.328537 166.793808,177.322937 
	C157.734695,177.318527 154.655655,174.075272 154.703949,164.560623 
	C156.428146,163.150009 158.509109,163.708115 160.441681,163.698303 
	C171.601059,163.641632 182.761185,163.618652 193.920288,163.696518 
	C197.028412,163.718185 199.165924,162.978012 199.048920,159.293243 
	C197.573868,157.685883 195.620560,158.352707 193.894211,158.344376 
	C181.402359,158.284012 168.908752,158.214508 156.418777,158.380493 
	C152.946823,158.426636 150.875443,157.507553 149.732330,153.990845 
	C147.212189,146.238022 144.342178,138.599106 141.630966,130.908066 
	C141.137939,129.509460 140.441544,128.108078 141.510208,126.124931 
	C168.774323,126.124931 196.299881,126.124931 223.805527,126.124931 
	C225.069611,134.577576 221.311813,139.320557 213.485001,139.320847 
	C205.489975,139.321152 197.494934,139.316544 188.999908,139.314392 
z"/>
<path fill="#000000" opacity="1.000000" stroke="none" 
	d="
M260.591064,111.207436 
	C259.089233,117.431541 256.777588,121.763611 249.411682,120.440002 
	C245.940765,119.816284 245.349533,123.217194 244.472610,125.682449 
	C239.125137,140.715408 233.848511,155.773712 228.459473,170.791702 
	C226.311432,176.777786 220.958771,179.228104 215.036987,177.184647 
	C211.940643,176.116180 213.421143,173.959320 214.009613,172.258087 
	C218.465317,159.377075 223.021896,146.530991 227.536804,133.670410 
	C229.848892,127.084488 232.447739,120.578346 234.346085,113.874489 
	C235.948044,108.217262 239.128571,106.052925 244.892334,106.584465 
	C249.182358,106.980103 253.536530,106.703819 257.861938,106.684135 
	C260.868286,106.670456 261.729919,108.079391 260.591064,111.207436 
z"/>
<path fill="#000000" opacity="1.000000" stroke="none" 
	d="
M185.339066,194.827957 
	C181.756027,195.763092 178.950867,195.264969 177.140320,192.228134 
	C175.824753,190.021545 176.020264,187.698563 177.367264,185.596710 
	C178.856720,183.272568 181.155853,182.442841 183.854645,182.777359 
	C186.437302,183.097488 188.151291,184.609055 188.880493,187.036896 
	C189.879730,190.363754 188.599640,192.875336 185.339066,194.827957 
z"/>
<path fill="#000000" opacity="1.000000" stroke="none" 
	d="
M209.537567,185.834579 
	C212.345474,182.158463 215.576736,181.815353 218.950714,183.956833 
	C221.776779,185.750565 221.917694,188.717850 220.855682,191.498306 
	C219.617615,194.739700 216.843369,195.767242 213.545792,195.173676 
	C209.740036,194.488632 208.328339,191.374664 209.537567,185.834579 
z"/>
</svg>